<svg xmlns="http://www.w3.org/2000/svg" xmlns:xlink="http://www.w3.org/1999/xlink" version="1.1" width="190" height="190">
	<defs>
		<path id="boom" d="m27.08536,72.47023l-13.87195,-48.24451l58.26221,12.32913l19.42075,-30.55486l30.51828,37.52351l46.05487,-13.40126l-8.32318,49.3166l28.85367,35.91536l-33.29269,20.90596l-3.32922,28.9467l-48.27438,-18.22568l-38.84146,30.0188l-11.09756,-43.95612l-47.16464,-17.15363l21.08536,-43.42004l-0.00003,0.00002z"/>
		<mask id="boomMask">
			<rect width="190" height="190" fill="white"/>
			<path d="m50.36586,79.31348l-9.45122,-32.16301l39.69512,8.21943l13.23172,-20.36991l20.79267,25.01568l31.37804,-8.93417l-5.67073,32.87774l19.65854,23.94357l-22.68294,13.93732l-2.26825,19.29781l-32.89024,-12.15045l-26.46341,20.01253l-7.56097,-29.30408l-32.13416,-11.43575l14.36585,-28.94671l-0.00002,0.00002z" fill="black"/>
		</mask>
	</defs>
	<g>
		<use xlink:href="#boom" mask="url(#boomMask)" fill="white"/>
		<use xlink:href="#boom" transform="translate(65,60) scale(0.35)" fill="white"/>
	</g>
</svg>
